{"asset":{"generator":"glTF-Transform v4.0.1","version":"2.0","extras":{"author":"Sergio Sotomayor (https://sketchfab.com/sergiosotomayor)","license":"CC-BY-4.0 (http://creativecommons.org/licenses/by/4.0/)","source":"https://sketchfab.com/3d-models/toon-spaceship-ce3e358791a84ebc8c9c36f71ce3e603","title":"Toon Spaceship"}},"accessors":[{"type":"VEC3","componentType":5126,"count":2108,"max":[0.8396854400634766,0.9776181578636169,0.7692755460739136],"min":[-0.8396854400634766,-1.208989143371582,-0.8850910663604736],"bufferView":0,"byteOffset":0},{"type":"VEC3","componentType":5126,"count":2108,"bufferView":0,"byteOffset":12},{"type":"VEC2","componentType":5126,"count":2108,"bufferView":0,"byteOffset":24},{"type":"SCALAR","componentType":5125,"count":11472,"bufferView":1,"byteOffset":0},{"type":"SCALAR","componentType":5125,"count":17844,"bufferView":1,"byteOffset":45888},{"type":"SCALAR","componentType":5125,"count":1620,"bufferView":1,"byteOffset":117264},{"type":"SCALAR","componentType":5125,"count":5376,"bufferView":1,"byteOffset":123744},{"type":"SCALAR","componentType":5125,"count":54,"bufferView":1,"byteOffset":145248},{"type":"VEC3","componentType":5126,"count":3453,"max":[0.844915509223938,0.6192719340324402,0.6459711790084839],"min":[-0.8451370000839233,-1.1848034858703613,-0.9085900783538818],"bufferView":2,"byteOffset":0},{"type":"VEC3","componentType":5126,"count":3453,"bufferView":2,"byteOffset":12},{"type":"VEC2","componentType":5126,"count":3453,"bufferView":2,"byteOffset":24},{"type":"VEC3","componentType":5126,"count":677,"max":[0.8305202126502991,0.05391547828912735,0.064368836581707],"min":[-0.8307762742042542,-1.2428699731826782,-1.051166296005249],"bufferView":3,"byteOffset":0},{"type":"VEC3","componentType":5126,"count":677,"bufferView":3,"byteOffset":12},{"type":"VEC2","componentType":5126,"count":677,"bufferView":3,"byteOffset":24},{"type":"VEC3","componentType":5126,"count":930,"max":[0.9901941418647766,1.246934413909912,-0.23525944352149963],"min":[-0.9905911684036255,0.5430062413215637,-0.7264018654823303],"bufferView":4,"byteOffset":0},{"type":"VEC3","componentType":5126,"count":930,"bufferView":4,"byteOffset":12},{"type":"VEC2","componentType":5126,"count":930,"bufferView":4,"byteOffset":24},{"type":"VEC3","componentType":5126,"count":25,"max":[0.9084270000457764,1.0975837707519531,0.4513891637325287],"min":[-0.9136344790458679,0.7086004018783569,-0.6396052837371826],"bufferView":5,"byteOffset":0},{"type":"VEC3","componentType":5126,"count":25,"bufferView":5,"byteOffset":12},{"type":"VEC2","componentType":5126,"count":25,"bufferView":5,"byteOffset":24}],"bufferViews":[{"buffer":0,"byteOffset":0,"byteLength":67456,"byteStride":32,"target":34962},{"buffer":0,"byteOffset":67456,"byteLength":145464,"target":34963},{"buffer":0,"byteOffset":212920,"byteLength":110496,"byteStride":32,"target":34962},{"buffer":0,"byteOffset":323416,"byteLength":21664,"byteStride":32,"target":34962},{"buffer":0,"byteOffset":345080,"byteLength":29760,"byteStride":32,"target":34962},{"buffer":0,"byteOffset":374840,"byteLength":800,"byteStride":32,"target":34962}],"buffers":[{"uri":"scene.bin","byteLength":375640}],"materials":[{"name":"fuselage","pbrMetallicRoughness":{"metallicFactor":0},"extensions":{"KHR_materials_ior":{"ior":1000},"KHR_materials_specular":{"specularColorFactor":[0,0,0]}}},{"name":"frames","pbrMetallicRoughness":{"baseColorFactor":[0.10829235995947611,0.10829235995947611,0.10829235995947611,1],"metallicFactor":0},"extensions":{"KHR_materials_ior":{"ior":1000},"KHR_materials_specular":{"specularColorFactor":[0,0,0]}}},{"name":"glass","pbrMetallicRoughness":{"baseColorFactor":[0.3291694276,0.5493194066,0.810369951,1],"metallicFactor":0},"extensions":{"KHR_materials_ior":{"ior":1000},"KHR_materials_specular":{"specularColorFactor":[0,0,0]}}},{"name":"paint","pbrMetallicRoughness":{"baseColorFactor":[0.79,0.79,0.79,1],"metallicFactor":0},"extensions":{"KHR_materials_ior":{"ior":1000},"KHR_materials_specular":{"specularColorFactor":[0,0,0]}}},{"name":"motors","pbrMetallicRoughness":{"baseColorFactor":[0,0,0,1],"metallicFactor":0},"extensions":{"KHR_materials_ior":{"ior":1000},"KHR_materials_specular":{"specularColorFactor":[0,0,0]}}}],"meshes":[{"name":"Spaceship_fuselage_0","primitives":[{"attributes":{"NORMAL":1,"POSITION":0,"TEXCOORD_0":2},"mode":4,"material":0,"indices":3}]},{"name":"Spaceship_frames_0","primitives":[{"attributes":{"NORMAL":9,"POSITION":8,"TEXCOORD_0":10},"mode":4,"material":1,"indices":4}]},{"name":"Spaceship_glass_0","primitives":[{"attributes":{"NORMAL":12,"POSITION":11,"TEXCOORD_0":13},"mode":4,"material":2,"indices":5}]},{"name":"Spaceship_paint_0","primitives":[{"attributes":{"NORMAL":15,"POSITION":14,"TEXCOORD_0":16},"mode":4,"material":3,"indices":6}]},{"name":"Spaceship_motors_0","primitives":[{"attributes":{"NORMAL":18,"POSITION":17,"TEXCOORD_0":19},"mode":4,"material":4,"indices":7}]}],"nodes":[{"name":"Sketchfab_model","rotation":[-0.7071067811865475,0,0,0.7071067811865476],"children":[1]},{"name":"8bace01273304b5a9210f0342b2dfaa2.fbx","rotation":[0.7071067811865475,0,0,0.7071067811865476],"children":[2]},{"name":"RootNode","children":[3,9,12]},{"name":"Spaceship","translation":[-0.06298213452100754,6.2143683433532715,-26.641481399536133],"rotation":[-0.7071068387877038,0,0,0.7071067235853866],"scale":[100,100.00000000000001,100.00000000000001],"children":[4,5,6,7,8]},{"name":"Spaceship_fuselage_0","mesh":0},{"name":"Spaceship_frames_0","mesh":1},{"name":"Spaceship_glass_0","mesh":2},{"name":"Spaceship_paint_0","mesh":3},{"name":"Spaceship_motors_0","mesh":4},{"name":"Area","translation":[20.972991943359375,254.91461181640625,4.789847373962402],"rotation":[0.010932181317752821,0.0007342283560404725,-0.05129093568060297,0.9986236469448164],"scale":[100,99.99999237060547,100],"children":[10]},{"name":"Object_10","rotation":[0.7071067811865475,0,0,0.7071067811865476],"children":[11]},{"name":"Object_11"},{"name":"Camera","translation":[582.7086181640625,-20.07099151611328,23.0626277923584],"rotation":[0.01400317140889875,0.9990783034468135,0.0005830079311496464,0.04057234124476932],"scale":[100.00000000000003,100.00000000000001,99.9999923706055],"children":[13]},{"name":"Object_13"}],"scenes":[{"name":"Sketchfab_Scene","nodes":[0]}],"scene":0,"extensionsUsed":["KHR_materials_ior","KHR_materials_specular"]}